<mxfile host="app.diagrams.net" agent="Mozilla/5.0 (Windows NT 10.0; Win64; x64) AppleWebKit/537.36 (KHTML, like Gecko) Chrome/134.0.0.0 Safari/537.36" version="26.0.16">
  <diagram name="Page-1" id="OeB0h5TDF0Pd_844PJk4">
    <mxGraphModel dx="1353" dy="1089" grid="0" gridSize="10" guides="1" tooltips="1" connect="1" arrows="1" fold="1" page="0" pageScale="1" pageWidth="850" pageHeight="1100" math="0" shadow="0">
      <root>
        <mxCell id="0" />
        <mxCell id="1" parent="0" />
        <mxCell id="v03UhaQ2iCi6_vs3jOKd-5" style="edgeStyle=none;curved=1;rounded=0;orthogonalLoop=1;jettySize=auto;html=1;exitX=0.5;exitY=1;exitDx=0;exitDy=0;entryX=0.5;entryY=0;entryDx=0;entryDy=0;fontSize=12;startSize=8;endSize=8;" edge="1" parent="1" source="v03UhaQ2iCi6_vs3jOKd-1" target="v03UhaQ2iCi6_vs3jOKd-4">
          <mxGeometry relative="1" as="geometry" />
        </mxCell>
        <mxCell id="v03UhaQ2iCi6_vs3jOKd-1" value="输入参数（维度、系统大小、无序类型）" style="ellipse;whiteSpace=wrap;html=1;fontSize=16;" vertex="1" parent="1">
          <mxGeometry x="-75" y="-97" width="188" height="78" as="geometry" />
        </mxCell>
        <mxCell id="v03UhaQ2iCi6_vs3jOKd-8" style="edgeStyle=none;curved=1;rounded=0;orthogonalLoop=1;jettySize=auto;html=1;exitX=0.5;exitY=1;exitDx=0;exitDy=0;fontSize=12;startSize=8;endSize=8;" edge="1" parent="1" source="v03UhaQ2iCi6_vs3jOKd-4" target="v03UhaQ2iCi6_vs3jOKd-7">
          <mxGeometry relative="1" as="geometry" />
        </mxCell>
        <mxCell id="v03UhaQ2iCi6_vs3jOKd-4" value="参数组装" style="rounded=1;whiteSpace=wrap;html=1;fontSize=16;" vertex="1" parent="1">
          <mxGeometry x="-61.5" y="42" width="161" height="78" as="geometry" />
        </mxCell>
        <mxCell id="v03UhaQ2iCi6_vs3jOKd-12" style="edgeStyle=none;curved=1;rounded=0;orthogonalLoop=1;jettySize=auto;html=1;exitX=0.5;exitY=1;exitDx=0;exitDy=0;entryX=0.5;entryY=0;entryDx=0;entryDy=0;fontSize=12;startSize=8;endSize=8;" edge="1" parent="1" source="v03UhaQ2iCi6_vs3jOKd-7" target="v03UhaQ2iCi6_vs3jOKd-10">
          <mxGeometry relative="1" as="geometry" />
        </mxCell>
        <mxCell id="v03UhaQ2iCi6_vs3jOKd-7" value="构造哈密顿量" style="rounded=1;whiteSpace=wrap;html=1;fontSize=16;" vertex="1" parent="1">
          <mxGeometry x="-61.5" y="188" width="161" height="78" as="geometry" />
        </mxCell>
        <mxCell id="v03UhaQ2iCi6_vs3jOKd-14" style="edgeStyle=none;curved=1;rounded=0;orthogonalLoop=1;jettySize=auto;html=1;exitX=0.5;exitY=1;exitDx=0;exitDy=0;entryX=0.5;entryY=0;entryDx=0;entryDy=0;fontSize=12;startSize=8;endSize=8;" edge="1" parent="1" source="v03UhaQ2iCi6_vs3jOKd-10" target="v03UhaQ2iCi6_vs3jOKd-13">
          <mxGeometry relative="1" as="geometry" />
        </mxCell>
        <mxCell id="v03UhaQ2iCi6_vs3jOKd-10" value="流方程计算" style="rounded=1;whiteSpace=wrap;html=1;fontSize=16;" vertex="1" parent="1">
          <mxGeometry x="-61.5" y="326" width="161" height="78" as="geometry" />
        </mxCell>
        <mxCell id="v03UhaQ2iCi6_vs3jOKd-13" value="结果写入" style="rounded=1;whiteSpace=wrap;html=1;fontSize=16;arcSize=29;" vertex="1" parent="1">
          <mxGeometry x="-61.5" y="468" width="161" height="78" as="geometry" />
        </mxCell>
      </root>
    </mxGraphModel>
  </diagram>
</mxfile>
